<svg width="11" height="11" viewBox="0 0 11 11" fill="none" xmlns="http://www.w3.org/2000/svg">
<path d="M10.8333 4.875H8.57458L10.3296 3.12L9.56583 2.35083L7.04167 4.875H5.95833V3.79167L8.4825 1.2675L7.71333 0.50375L5.95833 2.25875V0H4.875V2.25875L3.12 0.50375L2.35083 1.2675L4.875 3.79167V4.875H3.79167L1.2675 2.35083L0.50375 3.12L2.25875 4.875H0V5.95833H2.25875L0.50375 7.71333L1.2675 8.4825L3.79167 5.95833H4.875V7.04167L2.35083 9.56583L3.12 10.3296L4.875 8.57458V10.8333H5.95833V8.57458L7.71333 10.3296L8.4825 9.56583L5.95833 7.04167V5.95833H7.04167L9.56583 8.4825L10.3296 7.71333L8.57458 5.95833H10.8333V4.875Z" fill="#686C6B"/>
</svg>
