<svg width="16" height="16" viewBox="0 0 16 16" fill="none" xmlns="http://www.w3.org/2000/svg">
<path d="M4.32461 0H5.67944V3.74963H4.32461V0Z" fill="#686D69"/>
<path d="M3.91378 0H6.09131V2.15056H3.91378V0Z" fill="#686D69"/>
<path d="M3.91357 1.26543V0.88464L2.92098 0.509216V1.63993L3.91357 1.26543Z" fill="#686D69"/>
<path d="M0.405254 1.82271L2.9209 1.64064V0.509976L0.405254 0.328171V1.82271Z" fill="#686D69"/>
<path d="M0.439941 1.82098C0.0707764 1.82098 0.034882 1.48674 0.034882 1.07457C0.034882 0.66241 0.0707764 0.328224 0.439941 0.328224V1.82098Z" fill="#686D69"/>
<path d="M6.09116 1.26613V0.885345L7.08325 0.509975V1.64064L6.09116 1.26613Z" fill="#686D69"/>
<path d="M9.59912 1.82255L7.08348 1.64047V0.509811L9.59912 0.32806V1.82255Z" fill="#686D69"/>
<path d="M9.56467 1.82098C9.93383 1.82098 9.96973 1.48674 9.96973 1.07457C9.96973 0.66241 9.93383 0.328224 9.56467 0.328224V1.82098Z" fill="#686D69"/>
<path d="M5.53131e-05 8.2583H10.7327V13.0491H5.53131e-05V8.2583Z" fill="#686D69"/>
<path d="M10.6639 8.25829C12.8214 8.25829 15.7251 10.2777 15.7251 12.9488V15.4334H11.9118C11.9118 14.1734 11.1171 13.0491 10.1122 13.0491L10.6641 8.27921V8.25808L10.6639 8.25829Z" fill="#686D69"/>
<path d="M2.63248 10.6421C2.63248 11.5362 3.30551 12.2678 4.1281 12.2678H5.87669C6.69928 12.2678 7.37231 11.5362 7.37231 10.6421V4.77554C7.37231 3.88142 6.69928 3.14986 5.87669 3.14986H4.1281C3.30551 3.14986 2.63248 3.88142 2.63248 4.77554V10.6421V10.6421Z" fill="#686D69"/>
<path d="M1.56326 5.99914H8.44165V7.09333H1.56326V5.99914Z" fill="#686D69"/>
<path d="M7.78144 8.2583L7.78174 8.25862H7.37258V7.81389L7.37283 7.81416C7.37533 8.05801 7.55679 8.25526 7.78164 8.25851L7.78144 8.2583Z" fill="#686D69"/>
<path d="M2.22366 8.2583L2.22337 8.25862H2.63257V7.81389L2.63227 7.81416C2.62978 8.05801 2.44831 8.25526 2.22396 8.25851L2.22366 8.2583Z" fill="#686D69"/>
<path d="M11.9118 15.4335H15.7251V16H11.9118V15.4335Z" fill="#686D69"/>
<path d="M9.92065 13.0232C7.51499 13.0232 7.51499 13.9986 5.10928 13.9986C2.70356 13.9986 2.70356 13.0232 0.297898 13.0232" fill="#686D69"/>
</svg>
