<svg width="21" height="21" viewBox="0 0 21 21" fill="none" xmlns="http://www.w3.org/2000/svg">
<path d="M5.67612 0H7.45435V4.92139H5.67612V0Z" fill="#686D69"/>
<path d="M5.13686 0H7.99487V2.82261H5.13686V0Z" fill="#686D69"/>
<path d="M5.13647 1.66087V1.16109L3.83369 0.668346V2.15241L5.13647 1.66087Z" fill="#686D69"/>
<path d="M0.531957 2.39231L3.83374 2.15334V0.669345L0.531957 0.430725V2.39231Z" fill="#686D69"/>
<path d="M0.577393 2.39003C0.0928635 2.39003 0.045752 1.95134 0.045752 1.41038C0.045752 0.869413 0.0928635 0.430794 0.577393 0.430794V2.39003Z" fill="#686D69"/>
<path d="M7.99451 1.6618V1.16201L9.29663 0.669342V2.15334L7.99451 1.6618Z" fill="#686D69"/>
<path d="M12.5989 2.3921L9.2971 2.15312V0.669129L12.5989 0.43058V2.3921Z" fill="#686D69"/>
<path d="M12.5536 2.39003C13.0381 2.39003 13.0852 1.95134 13.0852 1.41038C13.0852 0.869413 13.0381 0.430794 12.5536 0.430794V2.39003Z" fill="#686D69"/>
<path d="M0.000118256 10.839H14.0867V17.1269H0.000118256V10.839Z" fill="#686D69"/>
<path d="M13.9963 10.839C16.8281 10.839 20.6392 13.4894 20.6392 16.9952V20.2563H15.6342C15.6342 18.6026 14.5912 17.1269 13.2723 17.1269L13.9965 10.8665V10.8387L13.9963 10.839Z" fill="#686D69"/>
<path d="M3.45499 13.9677C3.45499 15.1413 4.33834 16.1014 5.418 16.1014H7.71302C8.79267 16.1014 9.67603 15.1413 9.67603 13.9677V6.2679C9.67603 5.09436 8.79267 4.1342 7.71302 4.1342H5.418C4.33834 4.1342 3.45499 5.09436 3.45499 6.2679V13.9677V13.9677Z" fill="#686D69"/>
<path d="M2.05171 7.87387H11.0796V9.31H2.05171V7.87387Z" fill="#686D69"/>
<path d="M10.213 10.839L10.2134 10.8394H9.67636V10.2557L9.67669 10.2561C9.67996 10.5761 9.91814 10.835 10.2132 10.8393L10.213 10.839Z" fill="#686D69"/>
<path d="M2.91864 10.839L2.91824 10.8394H3.45532V10.2557L3.45493 10.2561C3.45166 10.5761 3.21348 10.835 2.91903 10.8393L2.91864 10.839Z" fill="#686D69"/>
<path d="M15.6342 20.2565H20.6392V21H15.6342V20.2565Z" fill="#686D69"/>
<path d="M13.0208 17.0929C9.86332 17.0929 9.86332 18.3731 6.70582 18.3731C3.54832 18.3731 3.54832 17.0929 0.390885 17.0929" fill="#686D69"/>
</svg>
