<svg width="10" height="14" viewBox="0 0 10 14" fill="none" xmlns="http://www.w3.org/2000/svg">
<path d="M5 0.0156708C1.66875 3.14238 0 5.84302 0 8.12449C0 11.5467 2.375 13.7594 5 13.7594C7.625 13.7594 10 11.5467 10 8.12449C10 5.84302 8.33125 3.14238 5 0.0156708ZM2.39375 8.26193C2.625 8.26193 2.8125 8.4406 2.85625 8.68798C3.1125 10.2135 4.28125 10.7358 5.13125 10.6602C5.4 10.6465 5.625 10.8801 5.625 11.1756C5.625 11.4505 5.425 11.6773 5.175 11.691C3.84375 11.7803 2.2875 10.942 1.93125 8.85978C1.88125 8.55055 2.10625 8.26193 2.39375 8.26193Z" fill="#646D6C"/>
</svg>
