<svg width="10" height="14" viewBox="0 0 10 14" fill="none" xmlns="http://www.w3.org/2000/svg">
<path d="M5 0C1.66875 3.12671 0 5.82735 0 8.10882C0 11.531 2.375 13.7438 5 13.7438C7.625 13.7438 10 11.531 10 8.10882C10 5.82735 8.33125 3.12671 5 0ZM2.39375 8.24626C2.625 8.24626 2.8125 8.42492 2.85625 8.67231C3.1125 10.1979 4.28125 10.7201 5.13125 10.6445C5.4 10.6308 5.625 10.8644 5.625 11.1599C5.625 11.4348 5.425 11.6616 5.175 11.6753C3.84375 11.7647 2.2875 10.9263 1.93125 8.84411C1.88125 8.53487 2.10625 8.24626 2.39375 8.24626Z" fill="#171E24"/>
</svg>
